<svg xmlns="http://www.w3.org/2000/svg" width="51.028" height="61.151" viewBox="0 0 51.028 61.151">
  <g id="Сгруппировать_5" data-name="Сгруппировать 5" transform="translate(-2433.011 -9.153)">
    <path id="Контур_3" data-name="Контур 3" d="M2461.243,9.169a23.146,23.146,0,0,1,11.306,2.651,20.177,20.177,0,0,1,10.027,10.819A24.18,24.18,0,0,1,2484,30.245a18.1,18.1,0,0,1-1.791,8.808,57.125,57.125,0,0,1-3.6,6.442,5.57,5.57,0,0,0-.83,3.546,17.756,17.756,0,0,0,1.7,5.863,2.091,2.091,0,0,1-.073,1.987,22.153,22.153,0,0,1-5.191,6.035,36.615,36.615,0,0,1-8.1,5.476,14.556,14.556,0,0,1-7.174,1.889,1.431,1.431,0,0,1-1.277-.744,71.7,71.7,0,0,1-3.893-7.9c-.557-1.285-1.153-2.555-1.666-3.857-.187-.472-.5-.322-.751-.265a22.284,22.284,0,0,1-5.633.385,10.655,10.655,0,0,1-5.411-1.337,3.866,3.866,0,0,1-1.861-2.954,49.4,49.4,0,0,1-.2-6.093c-.017-1.032-.1-2.053-.211-3.077-.053-.484-.19-.756-.759-.812a5.682,5.682,0,0,1-3.158-1.154,3.376,3.376,0,0,1-.936-3.731c.75-3.08,1.515-6.164,2.462-9.187a48.633,48.633,0,0,1,2.209-5.707,26.088,26.088,0,0,1,3.856-6.263,23.082,23.082,0,0,1,8.511-6.318A26.35,26.35,0,0,1,2461.243,9.169Zm9.14,34.068a3.024,3.024,0,0,1,0-.488,15.8,15.8,0,0,0,.5-3.826,2.1,2.1,0,0,1,.29-1.015,10.564,10.564,0,0,0,.344-10.016,12.443,12.443,0,0,0-8.648-6.981,10.916,10.916,0,0,0-6.014.2,15.274,15.274,0,0,0-5.16,2.706,11.3,11.3,0,0,0-3.885,5.925c-.976,3.749-.377,7.44.579,11.1.438,1.682.987,3.33,1.565,4.967.527,1.49,1.035,3,1.689,4.428,1.166,2.544,2.246,5.126,3.419,7.667,1.4,3.041,2.7,6.13,4.216,9.12a.928.928,0,0,0,1.178.59,17.736,17.736,0,0,0,4.1-1.35,35.507,35.507,0,0,0,7.586-4.993,21.47,21.47,0,0,0,4.634-5.071.7.7,0,0,0,.06-.715,24.3,24.3,0,0,1-1.62-5.424,8.236,8.236,0,0,1,.818-5.408c.8-1.481,1.708-2.9,2.553-4.357a22.255,22.255,0,0,0,2.318-5.42,17.409,17.409,0,0,0,.22-7.322,17.431,17.431,0,0,0-2.017-5.987c-3.523-6.137-9.143-8.989-15.924-9.711a22.352,22.352,0,0,0-11.107,1.55,22.829,22.829,0,0,0-6.659,4.147c-3.4,3.091-5.235,7.1-6.706,11.333-.978,2.815-1.724,5.7-2.473,8.574a12.387,12.387,0,0,0-.552,2.436.666.666,0,0,0,.489.757,6.909,6.909,0,0,0,1.943.422,2.6,2.6,0,0,1,2.346,2.032,20.969,20.969,0,0,1,.416,5.275,27.988,27.988,0,0,0,.216,4.868,1.5,1.5,0,0,0,.86,1.211,9.016,9.016,0,0,0,3.022.745,25.122,25.122,0,0,0,5.158-.111c.376-.036.839-.115.577-.739-.743-1.773-1.446-3.564-2.205-5.33a49.9,49.9,0,0,1-3.433-10.786,26.915,26.915,0,0,1-.285-6.859,13.193,13.193,0,0,1,1.533-5.1,14.344,14.344,0,0,1,3.714-4.494,16.24,16.24,0,0,1,7-3.5,14.244,14.244,0,0,1,12.306,2.885c4.527,3.632,6.775,8.219,5.607,14.139A15.584,15.584,0,0,1,2470.383,43.237Z" fill="#fff"/>
    <path id="Контур_4" data-name="Контур 4" d="M2468.032,39.556a17.827,17.827,0,0,1-2.337,7.836,20.032,20.032,0,0,1-5.865,6.75c-.69.489-1.438.9-2.154,1.347-.229.144-.333.058-.429-.161-.248-.565-.5-1.131-.777-1.681-.174-.342-.054-.473.243-.671,3.143-1.25,5.828-5.385,6.192-6.089.129-.249.144-.381-.184-.416-.308-.033-.612-.114-.92-.146a9.478,9.478,0,0,1-8.308-6.586,8.8,8.8,0,0,1-.155-6.17,6.59,6.59,0,0,1,4.191-4.133c3.556-1.313,6.943.6,8.678,3.378A12.035,12.035,0,0,1,2468.032,39.556Zm-12.489-3.443a7.637,7.637,0,0,0,.847,3.691,7.158,7.158,0,0,0,6.837,3.98c1.26-.06,1.231-.127,1.632-1.327.115-.344.163-.693.245-1.037a8.874,8.874,0,0,0-1.416-7.6A4.816,4.816,0,0,0,2460,31.676,4.277,4.277,0,0,0,2455.543,36.113Z" fill="#fff"/>
  </g>
</svg>
